<svg xmlns="http://www.w3.org/2000/svg" xmlns:xlink="http://www.w3.org/1999/xlink" viewBox="0 0 163.52 93.3"><defs><style>.cls-1{fill:none;}.cls-2{clip-path:url(#clip-path);}.cls-3{fill:url(#linear-gradient);}.cls-4{clip-path:url(#clip-path-2);}.cls-5{fill:url(#linear-gradient-2);}.cls-6{fill:#f9511e;}.cls-7{fill:#6d6e70;}</style><clipPath id="clip-path"><path class="cls-1" d="M24.66.27a1.25,1.25,0,0,0-.51.85c.57.17,1.1.35,1.56.54l-1.61-.34C23.75,3,24,6,25.14,7.22A12,12,0,0,0,29,10a3,3,0,0,1-1.4-.09,3.8,3.8,0,0,0-1.18-.13c.94.6,1.77,2.53,2.89,4a11.92,11.92,0,0,0,3.14,1.67,7.58,7.58,0,0,1-2.69-1.11,4.87,4.87,0,0,0,1.09,1l1.51,1.11c.14.1,1,.47,1.91.95A9.2,9.2,0,0,0,32.8,17c.1.65.27,1.41.38,2.05a9.7,9.7,0,0,0,1.3,2.5,27,27,0,0,0,1.89,2.34c1,1,3.85,2,5.18,2.88-1.94-.74-4.44-.75-5.6-1.37a3.83,3.83,0,0,0,.44.72c.69.27,1.47.55,2.34.83a12.57,12.57,0,0,1-2.11-.56c1.53,1.6,4.19,1.21,6.71,2.12a5,5,0,0,1-1.53.06,4.57,4.57,0,0,0-2.14.21c1.27,0,3.77,1.12,6.07.64-.25.49-2.5,0-3.21.75,1.79-.47,2.45,0,3.52.16-1.36.07-2,.72-2.8.93a2.75,2.75,0,0,0,1.33-.16,3.23,3.23,0,0,1,2.76.25C44,21,36.3,7.61,25.18.16c11.13,4.71,20.09,18.1,24.15,30.58.84-.84,1.45-1.67,2.66-1a2,2,0,0,0-2.45-.25c.47-1,1.57-1.57,2.84-2.24a5.19,5.19,0,0,0-2.73,1A9.09,9.09,0,0,0,50.07,24a9.71,9.71,0,0,0-1.23-3.1c-.27.46-.82,2.24-1.42,2.68A14.27,14.27,0,0,0,47.89,19a9.23,9.23,0,0,0-.46-2c-.1-.24-.31-.62-.56-1.06a8.85,8.85,0,0,1,.31,3.42c-.22-2.57-.78-5.17-3-7.28-.8-.71-1.89-1.8-1.89-1.8a10.08,10.08,0,0,0-1.48-1.74C40.4,8,39.9,7.59,39.44,7.2a3.8,3.8,0,0,1-.07,1.52A13,13,0,0,0,39.17,7c-.68-.57-1.22-1-1.22-1-.52-.51-1.17-.9-1.69-1.41a24.28,24.28,0,0,0-2.62-2.3,12.27,12.27,0,0,0-1.19-.7,4,4,0,0,1,.21,1.77A5.15,5.15,0,0,0,31.4,1.2,13,13,0,0,0,28.64.4,18.14,18.14,0,0,0,25.89,0a2.8,2.8,0,0,0-1.23.27"/></clipPath><linearGradient id="linear-gradient" x1="5656.7" y1="483.17" x2="5657.12" y2="483.17" gradientTransform="matrix(0, -73.98, -73.98, 0, 35784.24, 418527.47)" gradientUnits="userSpaceOnUse"><stop offset="0" stop-color="#ff934e"/><stop offset="0.64" stop-color="#ff6519"/><stop offset="1" stop-color="#ff5000"/></linearGradient><clipPath id="clip-path-2"><path class="cls-1" d="M48.67,34.6A5.82,5.82,0,0,0,50,36.53c.79.75.59.2.45-.37C47.22,22.58,38.09,7.63,27.13,1.24c11,8,18.91,22.18,21.54,33.35"/></clipPath><linearGradient id="linear-gradient-2" x1="5657.2" y1="473.74" x2="5657.63" y2="473.74" gradientTransform="matrix(0, -84.04, -84.04, 0, 39851.33, 475463.03)" xlink:href="#linear-gradient"/></defs><title>Asset 8</title><g id="Layer_2" data-name="Layer 2"><g id="Layer_1-2" data-name="Layer 1"><g class="cls-2"><rect class="cls-3" x="23.75" width="28.62" height="31.39"/></g><g class="cls-4"><rect class="cls-5" x="27.13" y="1.24" width="23.62" height="36.03"/></g><path class="cls-6" d="M24.18,27.61a24.8,24.8,0,0,1,11.87,3.11,22.46,22.46,0,0,1,9.08,8.93,24.19,24.19,0,0,1,.07,24.21,22.61,22.61,0,0,1-9,8.93,24.36,24.36,0,0,1-24.09,0,22.44,22.44,0,0,1-9-8.93,24.42,24.42,0,0,1,0-24.21,22.13,22.13,0,0,1,9-8.93,24.89,24.89,0,0,1,11.92-3.11M17,39.31a13.21,13.21,0,0,0-5.38,5.33,14.7,14.7,0,0,0-1.93,7.24,14.45,14.45,0,0,0,1.91,7.17,13.65,13.65,0,0,0,5.36,5.33,14.32,14.32,0,0,0,14.36,0,13.71,13.71,0,0,0,5.33-5.33,14.45,14.45,0,0,0,1.91-7.17,14.71,14.71,0,0,0-1.93-7.24,13.21,13.21,0,0,0-5.38-5.33,14.57,14.57,0,0,0-14.24,0"/><path class="cls-6" d="M100.24,39.65a22.45,22.45,0,0,0-9.08-8.93,24.29,24.29,0,0,0-23.8,0,23.12,23.12,0,0,0-2.67,1.68V28.54H55.1v23h0V76h9.61V51.33a13.29,13.29,0,0,1,2-6.68,13.21,13.21,0,0,1,5.38-5.33,14.52,14.52,0,0,1,14.22,0,13.57,13.57,0,0,1,5.41,5.33,15.57,15.57,0,0,1,2,7.19V76h9.65V51.84a23,23,0,0,0-3.09-12.19"/><path class="cls-6" d="M155.45,76H145.8V71.29a19.4,19.4,0,0,1-2.37,1.5,24.4,24.4,0,0,1-24.11,0,22.44,22.44,0,0,1-9-8.93,24.42,24.42,0,0,1,0-24.21,22.13,22.13,0,0,1,9-8.93,24.29,24.29,0,0,1,23.8,0,22.45,22.45,0,0,1,9.07,8.93,23.34,23.34,0,0,1,3.14,12.19Zm-38.67-24a14.5,14.5,0,0,0,1.91,7.15,13.62,13.62,0,0,0,5.36,5.36,14.28,14.28,0,0,0,14.34,0,13.62,13.62,0,0,0,5.36-5.36,14.37,14.37,0,0,0,0-14.39,13.39,13.39,0,0,0-5.41-5.33,14.48,14.48,0,0,0-14.19,0,13.23,13.23,0,0,0-5.38,5.33,14.72,14.72,0,0,0-1.93,7.24"/><polygon class="cls-7" points="8.95 93.22 8.95 88.95 4.5 88.95 4.5 93.22 3.5 93.22 3.5 83.86 4.5 83.86 4.5 88.05 8.95 88.05 8.95 83.86 9.95 83.86 9.95 93.22 8.95 93.22"/><path class="cls-7" d="M22.86,90.24c0,1.42.67,2.24,1.91,2.24a2.12,2.12,0,0,0,1.7-.74l.64.57a3,3,0,0,1-2.37,1c-1.71,0-2.83-1-2.83-3.31,0-2.09,1-3.31,2.66-3.31s2.66,1.21,2.66,3.13v.43Zm3.22-1.79a1.66,1.66,0,0,0-3,0,2.72,2.72,0,0,0-.2,1.08h3.42a2.73,2.73,0,0,0-.2-1.08"/><path class="cls-7" d="M42.69,93.22V92.6a2.27,2.27,0,0,1-1.87.7A2.31,2.31,0,0,1,39,92.71a1.86,1.86,0,0,1-.49-1.32c0-1.13.79-1.87,2.24-1.87h1.95v-.62c0-.95-.47-1.42-1.66-1.42a1.7,1.7,0,0,0-1.63.74l-.64-.59a2.51,2.51,0,0,1,2.29-1c1.74,0,2.59.75,2.59,2.16v4.39Zm0-3H40.88c-1,0-1.45.39-1.45,1.14s.46,1.1,1.49,1.1a1.89,1.89,0,0,0,1.45-.43,1.49,1.49,0,0,0,.33-1.12Z"/><path class="cls-7" d="M57.34,93.22A1.54,1.54,0,0,1,55.7,91.5V83.86h.95v7.6c0,.63.21.95.87.95H58v.82Z"/><path class="cls-7" d="M71.23,93.22a1.59,1.59,0,0,1-1.66-1.74v-4h-.82v-.72h.82v-2h.95v2H71.9v.72H70.52v3.95c0,.59.28.95.88.95h.5v.82Z"/><path class="cls-7" d="M87.71,93.22v-4a1.49,1.49,0,0,0-1.58-1.71,1.53,1.53,0,0,0-1.62,1.71v4h-.95V83.86h.95v3.6a2.31,2.31,0,0,1,1.81-.79,2.19,2.19,0,0,1,2.33,2.39v4.16Z"/><path class="cls-7" d="M103.83,93.3a3.34,3.34,0,0,1-2.39-1c-.88-.88-.88-1.8-.88-3.79s0-2.91.88-3.79a3.34,3.34,0,0,1,2.39-1,3.16,3.16,0,0,1,3.25,2.79h-1a2.21,2.21,0,0,0-2.22-1.89,2.26,2.26,0,0,0-1.62.66c-.59.61-.66,1.25-.66,3.21s.07,2.6.66,3.21a2.29,2.29,0,0,0,3.87-1.24h1a3.16,3.16,0,0,1-3.25,2.79"/><path class="cls-7" d="M122.57,93.22V92.6a2.27,2.27,0,0,1-1.87.7,2.31,2.31,0,0,1-1.83-.59,1.86,1.86,0,0,1-.49-1.32c0-1.13.79-1.87,2.24-1.87h1.95v-.62c0-.95-.47-1.42-1.66-1.42a1.7,1.7,0,0,0-1.63.74l-.64-.59a2.51,2.51,0,0,1,2.29-1c1.74,0,2.59.75,2.59,2.16v4.39Zm0-3h-1.82c-1,0-1.45.39-1.45,1.14s.46,1.1,1.49,1.1a1.89,1.89,0,0,0,1.45-.43,1.49,1.49,0,0,0,.33-1.12Z"/><path class="cls-7" d="M139.22,88a1.35,1.35,0,0,0-1.12-.47,1.58,1.58,0,0,0-1.55,1.74v4h-.95V86.75h.95v.79a2.17,2.17,0,0,1,1.81-.87,2,2,0,0,1,1.55.61Z"/><path class="cls-7" d="M151.06,90.24c0,1.42.67,2.24,1.91,2.24a2.13,2.13,0,0,0,1.7-.74l.64.57a3,3,0,0,1-2.37,1c-1.71,0-2.83-1-2.83-3.31,0-2.09,1-3.31,2.66-3.31s2.66,1.21,2.66,3.13v.43Zm3.22-1.79a1.66,1.66,0,0,0-3,0,2.72,2.72,0,0,0-.2,1.08h3.42a2.72,2.72,0,0,0-.2-1.08"/><polygon class="cls-6" points="159.1 73.12 159.1 75.99 158.6 75.99 158.6 73.12 157.68 73.12 157.68 72.67 160.01 72.67 160.01 73.12 159.1 73.12"/><polygon class="cls-6" points="163.01 75.99 163.01 73.77 162.25 75.39 161.88 75.39 161.09 73.77 161.09 75.99 160.59 75.99 160.59 72.67 161.09 72.67 162.06 74.73 163.01 72.67 163.52 72.67 163.52 75.99 163.01 75.99"/></g></g></svg>